<svg width="64" height="60" viewBox="0 0 64 60" xmlns="http://www.w3.org/2000/svg"><path d="M64 27.378c0-3.058-.545-6.15-1.636-9.28-1.16-3.27-2.808-6.21-4.942-8.818-2.323-2.868-5.06-5.084-8.213-6.65C45.723.878 41.895 0 37.723 0c-3.39 0-6.518.52-9.386 1.564-2.845 1.043-5.31 2.537-7.396 4.48-2.086 1.992-3.686 4.362-4.8 7.112-1.16 2.797-1.742 5.878-1.742 9.244 0 2.37.39 4.646 1.173 6.827.83 2.275 2.003 4.266 3.52 5.973 1.612 1.85 3.52 3.27 5.725 4.267 2.37 1.066 4.978 1.6 7.822 1.6 2.204 0 4.23-.474 6.08-1.423 1.636-.805 3.07-1.943 4.302-3.413 1.067-1.28 1.908-2.677 2.525-4.194.57-1.375.853-2.62.853-3.734 0-1.375-.166-2.702-.498-3.982-.52-1.944-1.35-3.413-2.49-4.41-.733-.615-1.622-.935-2.665-.96-.948-.07-1.85.13-2.703.606-.877.474-1.48 1.09-1.813 1.848-.354.783-.32 1.6.108 2.454.57.972.89 1.943.96 2.915.047.925-.13 1.766-.534 2.525-.426.782-1.054 1.386-1.884 1.813-.853.475-1.86.712-3.022.712-2.347 0-4.148-.96-5.405-2.88-1.16-1.778-1.742-4.172-1.742-7.182 0-1.375.297-2.797.89-4.267.593-1.446 1.422-2.785 2.49-4.017 1.09-1.257 2.322-2.276 3.697-3.058 1.47-.83 2.986-1.304 4.55-1.422 2.893-.237 5.56.13 8 1.102 2.276.877 4.256 2.228 5.94 4.053 1.587 1.73 2.807 3.758 3.66 6.08.83 2.3 1.245 4.683 1.245 7.148 0 3.295-.64 6.423-1.92 9.386-1.21 2.82-2.927 5.31-5.155 7.467-2.228 2.134-4.777 3.782-7.645 4.943-2.915 1.162-5.973 1.743-9.173 1.743-3.723 0-7.16-.676-10.312-2.027-2.987-1.305-5.582-3.177-7.787-5.62-2.156-2.37-3.815-5.13-4.977-8.283-1.137-3.153-1.706-6.507-1.706-10.063 0-1.777.094-3.567.284-5.368.19-1.992.523-4.137.997-6.436.166-.853.094-1.564-.214-2.133-.26-.474-.675-.783-1.244-.925-.523-.142-1.032-.07-1.53.214-.545.26-.936.687-1.173 1.28-.972 2.323-1.79 4.86-2.454 7.608C.39 22.317 0 25.054 0 27.378c0 4.764.782 9.185 2.347 13.262 1.517 3.91 3.686 7.313 6.506 10.204 2.82 2.87 6.128 5.06 9.92 6.578 3.864 1.54 8.036 2.31 12.516 2.31 4.29 0 8.426-.828 12.408-2.488 3.91-1.61 7.395-3.9 10.453-6.862 3.083-2.986 5.477-6.412 7.183-10.275C63.11 36.077 64 31.834 64 27.377z" fill="#FFF" fill-rule="evenodd"/></svg>