<svg width="32" height="30" viewBox="0 0 32 30" xmlns="http://www.w3.org/2000/svg" xmlns:sketch="http://www.bohemiancoding.com/sketch/ns"><title>award</title><desc>Created with Sketch Beta.</desc><path fill="#fff" d="M25.98 12v-6c3.952 0 3.993-.209 3.993 2s-1.787 4-3.993 4zm-19.96 0c-2.205 0-3.993-1.791-3.993-4s.041-2 3.993-2v6zm19.96-8c0-2.209-1.787-4-3.992-4h-11.976c-2.205 0-3.992 1.791-3.992 4-6.837 0-5.989-.001-5.989 4 0 3.313 2.681 6 5.989 6 .238 0 .466-.038.696-.07 1.34 3.924 4.497 7.459 8.286 7.998v6.072h-2.994c-.551 0-.998.447-.998 1 0 .553.447 1 .998 1h7.984c.551 0 .998-.447.998-1 0-.553-.447-1-.998-1h-2.994v-6.072c3.789-.539 6.946-4.074 8.287-7.998.229.032.457.07.695.07 3.308 0 5.989-2.687 5.989-6 0-4.001.848-4-5.989-4z" sketch:type="MSShapeGroup"/></svg>