<svg xmlns="http://www.w3.org/2000/svg" viewBox="0 0 20 20" enable-background="new 0 0 20 20"><path fill="#fff" d="M10 1c-2.209 0-4 1.791-4 4h8c0-2.209-1.791-4-4-4zm9 9h-3v-2.497l-.008-.081 2.215-2.215c.391-.391.391-1.024 0-1.414-.39-.391-1.024-.391-1.414 0l-2.215 2.215-.081-.008h-8.994l-.081.008-2.215-2.215c-.39-.391-1.024-.391-1.414 0-.391.391-.391 1.024 0 1.414l2.215 2.215-.008.081v2.497h-3c-.552 0-1 .448-1 1s.448 1 1 1h3c0 .78.156 1.521.427 2.204l-.134.089-2.829 2.828c-.39.391-.39 1.024 0 1.414.391.391 1.024.391 1.414 0l2.602-2.602c.892 1.022 2.123 1.741 3.52 1.976v-9.91h2v9.91c1.397-.235 2.627-.955 3.52-1.976l2.602 2.602c.39.391 1.024.391 1.414 0 .39-.391.39-1.024 0-1.414l-2.829-2.828-.134-.089c.271-.683.427-1.424.427-2.204h3c.552 0 1-.448 1-1s-.448-1-1-1z"/></svg>