<svg xmlns="http://www.w3.org/2000/svg" viewBox="0 0 20 20" enable-background="new 0 0 20 20"><path fill="#fff" d="M9.584 6.036c1.952 0 2.591-1.381 1.839-2.843-.871-1.693 1.895-3.155.521-3.155-1.301 0-3.736 1.418-4.19 3.183-.339 1.324.296 2.815 1.83 2.815zm5.212 8.951l-.444-.383c-.487-.42-1.25-.418-1.735 0l-.442.382c-.62.534-1.397.801-2.174.801-.777 0-1.554-.267-2.173-.8l-.444-.384c-.487-.418-1.249-.419-1.734.001l-.444.383c-1.193 1.028-2.967 1.056-4.204.1v3.913c0 .552.448 1 1 1h16c.552 0 1-.448 1-1v-3.912c-1.237.954-3.011.929-4.206-.101zm-4.796-7.987c-7.574 0-9 3.361-9 5v.469l1.164 1.003c.486.421 1.249.417 1.735 0l.444-.383c1.237-1.065 3.105-1.066 4.345 0l.444.384c.484.417 1.245.42 1.735-.001l.442-.382c1.24-1.067 3.107-1.067 4.346-.001l.444.383c.487.421 1.25.417 1.735 0l1.166-1.003v-.469c0-1.639-1.426-5-9-5z"/></svg>