<svg width="62" height="62" viewBox="0 0 62 62" xmlns="http://www.w3.org/2000/svg"><path d="M23 30.2c2.653 0 4.8-2.506 4.8-5.6S25.653 19 23 19s-4.8 2.51-4.8 5.6 2.15 5.6 4.8 5.6zM31 .28C14.034.28.28 14.034.28 31S14.034 61.72 31 61.72c16.963 0 30.72-13.754 30.72-30.723C61.72 14.034 47.963.28 31 .28zm0 55.037c-13.43 0-24.32-10.887-24.32-24.32 0-13.43 10.886-24.32 24.32-24.32 13.434 0 24.32 10.89 24.32 24.323 0 13.43-10.89 24.317-24.32 24.317zm13.89-20.042c-1.16-.598-2.607-.137-3.224 1.024-.11.207-2.78 5.097-10.663 5.097-7.843 0-10.53-4.842-10.665-5.095-.602-1.168-2.023-1.644-3.213-1.052-1.184.592-1.667 2.035-1.072 3.222.16.317 3.993 7.725 14.95 7.725 10.96 0 14.787-7.41 14.944-7.728.59-1.176.115-2.593-1.056-3.195zM35 27h8c1.325 0 2.4-1.075 2.4-2.4s-1.075-2.4-2.4-2.4h-8c-1.325 0-2.4 1.075-2.4 2.4 0 1.328 1.075 2.4 2.4 2.4z" fill="#FFF" fill-rule="evenodd"/></svg>