<svg width="62" height="62" viewBox="0 0 62 62" xmlns="http://www.w3.org/2000/svg"><path d="M31 .28C14.034.28.28 14.034.28 31S14.034 61.72 31 61.72c16.963 0 30.72-13.754 30.72-30.723C61.72 14.034 47.963.28 31 .28zm0 55.037c-13.43 0-24.32-10.887-24.32-24.32 0-13.43 10.886-24.32 24.32-24.32 13.43 0 24.32 10.886 24.32 24.32 0 13.433-10.89 24.32-24.32 24.32zm8-36.314c-2.65 0-4.8 2.506-4.8 5.597 0 3.09 2.15 5.6 4.8 5.6 2.653 0 4.8-2.506 4.8-5.6s-2.147-5.597-4.8-5.597zM23.003 30.2c2.65 0 4.797-2.506 4.797-5.6S25.65 19 23 19s-4.8 2.506-4.8 5.6 2.15 5.6 4.803 5.6zm17.597 8H21.4c-1.325 0-2.4 1.075-2.4 2.4s1.075 2.4 2.4 2.4h19.2c1.325 0 2.4-1.075 2.4-2.4 0-1.328-1.072-2.4-2.4-2.4z" fill="#FFF" fill-rule="evenodd"/></svg>