<svg width="62" height="62" viewBox="0 0 62 62" xmlns="http://www.w3.org/2000/svg"><path d="M31.003.28C14.033.28.28 14.034.28 31c0 16.97 13.754 30.723 30.723 30.723 16.963 0 30.72-13.753 30.72-30.723C61.72 14.034 47.963.28 31.003.28zM31 55.317c-13.43 0-24.32-10.887-24.32-24.32 0-13.43 10.886-24.32 24.32-24.32 13.43 0 24.32 10.886 24.32 24.32 0 13.433-10.89 24.32-24.32 24.32zM39.003 30.2c2.65 0 4.8-2.506 4.8-5.6s-2.15-5.6-4.8-5.6-4.8 2.506-4.8 5.6 2.147 5.6 4.8 5.6zm-16 0c2.65 0 4.8-2.506 4.8-5.6s-2.15-5.6-4.8-5.6-4.8 2.506-4.8 5.6 2.147 5.6 4.8 5.6zm8.003 4.8c-10.956 0-14.79 7.408-14.95 7.725-.595 1.187-.112 2.627 1.072 3.222.346.17.71.253 1.072.253.88 0 1.728-.483 2.15-1.325.026-.054 2.63-5.075 10.656-5.075 7.882 0 10.554 4.886 10.65 5.072.59 1.184 2.032 1.674 3.22 1.075 1.186-.59 1.666-2.035 1.074-3.22C45.794 42.412 41.963 35 31.006 35z" fill="#FFF" fill-rule="evenodd"/></svg>