<svg width="62" height="62" viewBox="0 0 62 62" xmlns="http://www.w3.org/2000/svg"><path d="M31 .28C14.034.28.28 14.034.28 31S14.034 61.72 31 61.72c16.963 0 30.72-13.754 30.72-30.723C61.72 14.034 47.963.28 31 .28zm0 55.037c-13.43 0-24.32-10.887-24.32-24.32C6.68 17.563 17.566 6.68 31 6.68c13.43 0 24.323 10.886 24.323 24.32 0 13.434-10.893 24.317-24.323 24.317zM23.003 30.2c2.65 0 4.797-2.506 4.797-5.6S25.65 19 23 19s-4.8 2.506-4.8 5.6 2.15 5.6 4.803 5.6zM39 30.2c2.653 0 4.8-2.506 4.8-5.6S41.65 19 39 19s-4.8 2.51-4.8 5.6 2.15 5.6 4.8 5.6zm5.89 5.075c-1.16-.595-2.607-.137-3.224 1.024-.11.21-2.78 5.097-10.663 5.097-7.843 0-10.53-4.842-10.665-5.095-.602-1.168-2.023-1.644-3.213-1.052-1.184.595-1.664 2.035-1.072 3.222.16.317 3.993 7.725 14.95 7.725 10.96 0 14.787-7.41 14.944-7.728.59-1.176.115-2.593-1.056-3.195z" fill="#FFF" fill-rule="evenodd"/></svg>