<svg width="56" height="80" viewBox="0 0 56 80" xmlns="http://www.w3.org/2000/svg"><path d="M5.016 78.268c1.228-3.928 3.08-9.456 5.564-17.448 10.828-1.716 15.308 1.364 22.184-10.916-5.58 1.708-12.308-3.168-11.948-5.284.364-2.112 15.652 1.524 25.664-12.692-12.62 2.784-16.656-3.344-15.028-4.268 3.756-2.136 14.904-.888 20.848-6.676 3.064-2.98 4.5-10.224 3.252-12.808C54.056 5.052 44.928.392 39.896.832c-5.032.436-12.924 19.16-15.268 19.016-2.336-.148-2.812-8.392 1.276-16.052C21.596 5.704 13.7 11.632 11.224 16.7c-4.612 9.428.432 31.064-1.184 31.832-1.62.772-7.064-9.924-8.688-14.776C-.868 41.192-.92 48.64 5.564 58.532 3.12 65.024 1.784 72.496 1.58 76.296c-.096 3.036 2.896 3.688 3.436 1.972z" fill="#FFF" fill-rule="evenodd"/></svg>