<svg width="64" height="86" viewBox="0 0 64 86" xmlns="http://www.w3.org/2000/svg"><g fill="#FFF" fill-rule="evenodd"><path d="M52.96 44.298c7.2-1.13 10.133-2.605 10.133-5.087 0-.21-.023-.42-.077-.627-.248-1-1.26-1.607-2.255-1.357-.758.187-1.29.814-1.395 1.544-1.75 1.19-10.913 3.17-27.365 3.17-14.51 0-23.347-1.542-26.434-2.72 1.917-.738 6.41-1.807 15.334-2.39 1.028-.066 1.804-.952 1.738-1.978-.068-1.028-.963-1.8-1.98-1.74C.904 34.403.904 37.898.904 39.213c0 2.483 2.935 3.957 10.135 5.087 5.615.88 13.057 1.366 20.96 1.366 7.9 0 15.344-.485 20.96-1.367v-.002zm6.605 2.403c-2.463 1.523-12.487 3.14-26.21 3.14-5.153 0-10.193-.232-14.576-.673-1.02-.102-1.936.642-2.04 1.667-.104 1.023.643 1.937 1.666 2.04 4.504.454 9.673.693 14.95.693 11.04 0 24.035-1.142 28.168-3.695.873-.543 1.145-1.69.604-2.565-.54-.875-1.686-1.145-2.562-.606zM56.67 55.89c-4.968 1.282-13.897 2.08-23.307 2.08-2.356 0-4.7-.05-6.972-.146-1.04-.048-1.894.754-1.938 1.782-.043 1.028.756 1.897 1.782 1.94 2.324.1 4.723.148 7.13.148 9.85 0 18.91-.82 24.237-2.196.998-.258 1.597-1.273 1.34-2.27-.26-.995-1.27-1.596-2.27-1.338zm-6.983 8.222c-5.653.688-12.94 1-19.953.863-1.057-.016-1.88.798-1.9 1.826-.02 1.026.797 1.878 1.825 1.9 1.143.02 2.297.032 3.45.032 6.172 0 12.062-.32 17.027-.923 1.022-.125 1.75-1.054 1.624-2.076-.123-1.02-1.053-1.75-2.074-1.624zm-7.634 9.538c-4.16.224-8.65.28-12.942.167-1.044-.035-1.882.786-1.91 1.814-.026 1.026.786 1.882 1.814 1.91 1.466.038 2.968.057 4.466.057 2.984 0 5.934-.075 8.773-.225 1.027-.055 1.813-.93 1.76-1.96-.054-1.027-.9-1.82-1.958-1.764h-.002zm-8.34 7.715c-2.134-.01-4.26-.06-6.316-.15-1.047-.05-1.897.754-1.942 1.78-.044 1.03.753 1.898 1.78 1.943 2.104.09 4.28.142 6.46.153h.01c1.025 0 1.858-.83 1.863-1.855.003-1.028-.827-1.867-1.855-1.872z"/><path d="M18.46 20.325l3.503-.468 2.28 17.113c.2 1.49 1.58 2.547 3.07 2.348l5.605-.746.005.027 7.767 1.943-2.288-17.158-4.14-1.035 10.642-1.418 2.1 15.762 5.678-.756c1.49-.198 2.547-1.58 2.348-3.07l-2.28-17.113 3.5-.466c.516-.07.914-.437 1.02-.946.11-.507-.102-1.005-.546-1.277L50.15 9.01 49.058.83c-.05-.367-.388-.627-.753-.578L43.03.954c-.364.05-.624.388-.576.754l.37 2.78-5.374-3.316c-1.48-.913-3.352-.664-4.54.605l-7.89 8.417-7.598 8.11c-.356.38-.43.915-.194 1.378.238.46.717.712 1.233.643z"/></g></svg>