<svg width="60" height="68" viewBox="0 0 60 68" xmlns="http://www.w3.org/2000/svg"><path d="M58.174 59.564c-.202.62-.686 1.305-1.48 1.536-.57.168-19.512 5.654-20.095 5.807-1.668.444-2.828.117-3.588-.555-1.16-1.02-14.553-10.133-31.45-10.994-1.806-.09-.92-6.937 4.242-6.937 3.538 0 13.88 2.572 15.13 1.32.963-.967 1.4-6.68-2.62-16.65l-8.09-20.043c-.768-1.902.156-4.064 2.055-4.832 1.9-.768 4.07.153 4.83 2.055 0 0 6.37 15.78 7.062 17.49.687 1.707 1.533 2.354 2.454 1.998.82-.313.992-.86.494-2.52L19.845 5.803c-.66-1.94.377-4.046 2.32-4.707 1.943-.665 4.055.377 4.71 2.318l6.92 20.38c.61 1.793 1.257 2.73 2.28 2.297.617-.26.574-1.2.41-2.023L31.628 4.616C31.13 2.622 32.343.61 34.334.112c1.99-.494 4 .71 4.502 2.706l4.48 17.927c.654 2.635 1.255 3.584 2.296 3.324 1.064-.26 1.014-1.135.868-1.857-.338-1.69-3.1-15.388-3.1-15.388-.367-1.83.817-3.61 2.645-3.975 1.824-.366 3.605.818 3.968 2.642l3.37 16.75.004.003v.004l2.02 10.043c.44 1.895.945 3.68 1.6 5.43 3.857 10.272 1.845 19.783 1.187 21.84z" fill="#FFF" fill-rule="evenodd"/></svg>