<svg width="37" height="64" viewBox="0 0 37 64" xmlns="http://www.w3.org/2000/svg"><path d="M36.12 14.643V7.13C36.12 4.605 28.094 0 18.2 0 8.302 0 .28 4.605.28 7.13v7.513C.28 21.493 12.686 27.15 12.686 32 12.686 36.845.28 42.5.28 49.35v7.52C.28 59.392 8.302 64 18.2 64c9.894 0 17.92-4.608 17.92-7.133v-7.52c0-6.85-12.406-12.505-12.406-17.35 0-4.848 12.406-10.503 12.406-17.354zM5.21 7.45c2.228-1.405 6.4-3.463 13.166-3.463 6.762 0 12.82 3.463 12.82 3.463.454.275 2.233 1.225 1.014 1.948-2.682 1.59-7.93 3.264-14.01 3.264S7.05 10.82 4.363 9.226c-1.22-.72.848-1.776.848-1.776zM19.804 32c0 3.818 3.187 6.275 6.563 9.555 2.468 2.394 5.844 5.674 5.844 7.792v4.25c-3.104-1.546-12.39-3.056-12.39-8.013 0-2.506-3.242-2.506-3.242 0 0 4.957-9.287 6.467-12.39 8.013v-4.25c0-2.118 3.378-5.4 5.842-7.792 3.376-3.28 6.564-5.737 6.564-9.555 0-3.818-3.188-6.275-6.564-9.555-2.467-2.4-5.843-5.68-5.843-7.802L4.04 11.45c3.283 1.77 8.486 3.45 14.16 3.45 5.67 0 10.9-1.68 14.186-3.45l-.176 3.193c0 2.12-3.38 5.402-5.844 7.802-3.372 3.28-6.563 5.737-6.563 9.555z" fill="#FFF" fill-rule="evenodd"/></svg>