<svg width="60" height="64" viewBox="0 0 60 64" xmlns="http://www.w3.org/2000/svg"><path d="M37.698 59.947c-.1 1.098.77 2.076 1.938 2.172l14.168 1.158c1.17.096 2.208-.722 2.312-1.82L57.22 49.77l-18.416-1.514-1.106 11.69zM2.778 49.774L3.89 61.46c.1 1.1 1.14 1.918 2.31 1.822l14.17-1.16c1.166-.095 2.037-1.077 1.94-2.172L21.2 48.263l-18.42 1.51zM.956 30.517l1.14 12.057 18.422-1.514-1.145-12.043c-.024-.292-.04-.59-.04-.89 0-5.528 4.787-10.026 10.668-10.026 5.88 0 10.667 4.503 10.667 10.028 0 .3-.015.597-.043.89l-1.14 12.042 18.42 1.514 1.14-12.057c.076-.8.108-1.596.108-2.39C59.156 13.01 46.078.712 30 .712 13.922.71.844 13.01.844 28.13c0 .793.04 1.59.11 2.39z" fill="#FFF" fill-rule="evenodd"/></svg>