<svg width="56" height="92" viewBox="0 0 56 92" xmlns="http://www.w3.org/2000/svg"><path d="M28 18.286c5.047 0 9.143-4.096 9.143-9.143C37.143 4.09 33.047 0 28 0c-5.047 0-9.143 4.09-9.143 9.143 0 5.047 4.096 9.143 9.143 9.143zM55.328 52.95c-1.76-8.113-4.837-21.43-9.335-26.943C41.618 20.645 32.805 20.42 28 20.42c-4.805 0-13.618.225-17.993 5.587C5.51 31.52 2.432 44.837.672 52.95c-.974 4.495 5.275 6.145 6.907 1.624 2.427-6.734 4.3-12.39 8.406-17.08 2.158 13.29-5.805 36.417-6.272 49.363 0 2.524 2.048 4.572 4.572 4.572 1.947 0 3.61-1.217 4.27-2.936C20.645 81.24 28 61.05 28 61.05s7.355 20.19 9.445 27.444c.658 1.72 2.322 2.935 4.27 2.935 2.523 0 4.57-2.05 4.57-4.573-.466-12.946-8.43-36.073-6.27-49.358 4.104 4.69 5.978 10.345 8.406 17.078 1.628 4.517 7.882 2.867 6.908-1.627z" fill="#FFF" fill-rule="evenodd"/></svg>