<svg width="64" height="32" viewBox="0 0 64 32" xmlns="http://www.w3.org/2000/svg"><path d="M62.66 2.688c-.138-1.5-1.48-2.57-2.945-2.336C54.14 1.242 41.072 6.4 32 6.4S9.86 1.242 4.285.352C2.82.118 1.482 1.184 1.34 2.685.887 7.587 0 20.64 0 22.618c0 2.656 11.11 8.742 19.2 8.742 7.846 0 9.44-8.742 12.8-8.742 3.36 0 4.954 8.742 12.8 8.742 8.09 0 19.2-6.086 19.2-8.742 0-1.978-.886-15.03-1.34-19.93zM24.51 18.304c-1.13 1.018-4.272 3.424-8.1 2.672-3.826-.752-6.14-4.234-6.93-5.626-.192-.34-.132-.768.14-1.014 1.13-1.018 4.272-3.424 8.103-2.672 3.827.752 6.14 4.234 6.93 5.626.19.34.13.768-.143 1.014zm30.006-2.954c-.787 1.396-3.1 4.874-6.93 5.626-3.828.752-6.974-1.654-8.1-2.672-.275-.246-.333-.675-.144-1.014.787-1.396 3.1-4.874 6.93-5.626 3.828-.752 6.974 1.654 8.1 2.672.276.246.336.675.144 1.014z" fill="#FFF" fill-rule="evenodd"/></svg>