<svg xmlns="http://www.w3.org/2000/svg" viewBox="0 0 20 20" enable-background="new 0 0 20 20"><path fill="#fff" d="M19.581 5.84c-.043-.469-.462-.803-.92-.73-1.742.278-5.826 1.89-8.661 1.89s-6.919-1.612-8.661-1.89c-.458-.073-.876.26-.92.729-.142 1.532-.419 5.611-.419 6.229 0 .83 3.472 2.732 6 2.732 2.452 0 2.95-2.732 4-2.732s1.548 2.732 4 2.732c2.528 0 6-1.902 6-2.732 0-.618-.277-4.697-.419-6.228zm-11.921 4.88c-.353.318-1.335 1.07-2.531.835-1.196-.235-1.919-1.323-2.166-1.758-.06-.106-.041-.24.044-.317.353-.318 1.335-1.07 2.532-.835 1.196.235 1.919 1.323 2.166 1.758.059.106.04.24-.045.317zm9.377-.923c-.246.436-.969 1.523-2.166 1.758-1.196.235-2.179-.517-2.531-.835-.086-.077-.104-.211-.045-.317.246-.436.969-1.523 2.166-1.758 1.196-.235 2.179.517 2.531.835.086.077.105.211.045.317z"/></svg>