<svg width="32" height="30" viewBox="0 0 32 30" xmlns="http://www.w3.org/2000/svg" xmlns:sketch="http://www.bohemiancoding.com/sketch/ns"><title>misty-moon</title><desc>Created with Sketch Beta.</desc><path fill="#fff" d="M31 20h-14.566c-.262-1.129-.434-2.291-.434-3.5 0-6.878 4.483-12.7 10.685-14.728-2.15-1.126-4.59-1.772-7.185-1.772-8.561 0-15.5 6.939-15.5 15.5 0 1.565.237 3.075.669 4.5h-3.669c-.553 0-1 .448-1 1 0 .553.447 1 1 1h30c.553 0 1-.447 1-1 0-.552-.447-1-1-1zm-12 4h-14c-.553 0-1 .447-1 1 0 .553.447 1 1 1h14c.553 0 1-.447 1-1 0-.553-.447-1-1-1zm-2 4h-10c-.553 0-1 .448-1 1 0 .553.447 1 1 1h10c.553 0 1-.447 1-1 0-.552-.447-1-1-1z" sketch:type="MSShapeGroup"/></svg>