<svg width="64" height="80" viewBox="0 0 64 80" xmlns="http://www.w3.org/2000/svg"><g fill="#FFF" fill-rule="evenodd"><path d="M29.042 73.32c0-1.288-3.716-2.374-8.79-2.71V42.243c7.755-2.722 13.6-14.804 13.6-29.298 0-4.637-.598-9.028-1.666-12.944H1.684C.614 3.918.016 8.31.016 12.947c0 14.494 5.845 26.575 13.6 29.298V70.61c-5.073.338-8.79 1.423-8.79 2.712 0 1.555 5.42 2.82 12.11 2.82 6.684 0 12.104-1.263 12.104-2.82h.002z"/><path d="M63.905 7.644l-25.822-5.4c.626 3.242.947 6.63.947 10.113 0 10.566-2.93 19.98-7.646 25.895 1.416 3.107 3.345 5.516 5.7 6.94l-5.078 24.294c1.467.825 2.212 1.91 2.212 3.246 0 2.676-3.067 4.03-6.71 4.697 1.704.606 3.71 1.167 5.886 1.62 6.545 1.37 12.108 1.242 12.426-.28.264-1.26-3.152-3.086-8.048-4.454l5.804-27.767c8.148-1.078 16.342-11.707 19.308-25.894.95-4.54 1.263-8.96 1.02-13.012z"/></g></svg>