<svg width="72" height="64" viewBox="0 0 72 64" xmlns="http://www.w3.org/2000/svg"><g fill="#FFF" fill-rule="evenodd"><path d="M71.306 32c0-5.123-5.637-9.48-14.597-12.117 2.195-9.08 1.242-16.14-3.196-18.7-1.12-.647-2.398-.974-3.8-.974-4.05 0-8.99 2.765-13.995 7.543C30.715 2.975 25.773.208 21.722.208c-1.4 0-2.68.328-3.797.974-3.74 2.158-5.126 7.526-3.905 15.114.187 1.16.437 2.358.734 3.58C5.782 22.514.134 26.874.134 32.002c0 5.13 5.65 9.49 14.622 12.126-.298 1.224-.546 2.42-.733 3.58-1.222 7.587.166 12.956 3.905 15.114 1.12.646 2.396.973 3.798.973 4.05 0 8.992-2.765 13.996-7.543 5.004 4.778 9.944 7.543 13.996 7.543 1.4 0 2.677-.327 3.796-.975 4.437-2.56 5.39-9.622 3.196-18.698 8.96-2.64 14.596-6.996 14.596-12.12zM51.48 4.705c2.552 1.473 3.093 6.816 1.292 14.176-2.693-.584-5.618-1.028-8.717-1.316-1.786-2.52-3.624-4.822-5.48-6.87 4.444-4.22 8.47-6.418 11.142-6.418.686 0 1.263.14 1.764.43zM50.02 36.76c.623 1.527 1.162 3.008 1.63 4.437-1.47.31-3.022.583-4.654.81.527-.85 1.046-1.715 1.557-2.598.51-.89.997-1.772 1.47-2.65h-.002zm-4.99.615c-1.056 1.827-2.134 3.55-3.225 5.162-1.95.136-3.98.21-6.084.21-2.104 0-4.133-.075-6.084-.21-1.09-1.616-2.168-3.336-3.223-5.163-1.033-1.79-1.985-3.586-2.855-5.375.87-1.787 1.822-3.585 2.855-5.374 1.054-1.828 2.133-3.55 3.223-5.162 1.95-.136 3.98-.213 6.085-.213 2.107 0 4.136.078 6.086.214 1.09 1.612 2.17 3.334 3.222 5.16 1.053 1.823 2.002 3.618 2.858 5.375-.856 1.755-1.805 3.55-2.858 5.374zM35.72 50.36c-.998-1.103-2.005-2.303-3.015-3.596.993.03 1.996.05 3.016.05s2.023-.02 3.016-.052c-1.01 1.295-2.016 2.493-3.015 3.6zM22.89 39.41c.512.883 1.03 1.748 1.557 2.596-1.626-.225-3.17-.496-4.635-.805.47-1.45 1.008-2.928 1.617-4.427.47.88.954 1.76 1.46 2.636zM21.43 27.23c-.608-1.5-1.147-2.98-1.617-4.428 1.465-.31 3.01-.58 4.636-.805-.527.847-1.046 1.71-1.556 2.597-.506.876-.992 1.755-1.462 2.636zM35.72 13.64c1 1.105 2.007 2.304 3.017 3.598-.993-.032-1.997-.053-3.016-.053-1.02 0-2.023.02-3.015.053 1.01-1.294 2.016-2.493 3.016-3.6zM48.55 24.59c-.51-.884-1.028-1.75-1.555-2.595 1.633.224 3.183.498 4.653.808-.467 1.43-1.006 2.91-1.628 4.437-.47-.88-.957-1.763-1.47-2.65zM18.04 15.65c-.91-5.636-.19-9.73 1.92-10.947.5-.288 1.077-.428 1.765-.428 2.67 0 6.698 2.198 11.14 6.42-1.853 2.046-3.692 4.348-5.477 6.87-3.09.285-6.002.728-8.692 1.308-.266-1.1-.49-2.18-.658-3.224zM4.2 32c0-2.95 4.367-6.095 11.657-8.216.85 2.67 1.924 5.428 3.2 8.216-1.276 2.79-2.35 5.548-3.2 8.216C8.57 38.096 4.2 34.95 4.2 32zm15.76 27.297c-2.112-1.22-2.83-5.312-1.924-10.946.17-1.04.392-2.12.658-3.223 2.688.58 5.602 1.023 8.69 1.31 1.785 2.52 3.625 4.822 5.478 6.868-4.443 4.222-8.47 6.42-11.14 6.42-.687 0-1.263-.142-1.763-.43v.002zm31.517 0c-.5.287-1.077.428-1.765.428-2.67 0-6.696-2.198-11.14-6.42 1.854-2.046 3.694-4.35 5.48-6.87 3.098-.286 6.022-.73 8.717-1.316 1.8 7.36 1.26 12.703-1.293 14.176zm4.13-19.09c-.842-2.626-1.92-5.38-3.22-8.207 1.3-2.828 2.377-5.58 3.218-8.207 7.273 2.12 11.63 5.262 11.63 8.208 0 2.948-4.354 6.087-11.63 8.207z"/><ellipse cx="35.72" cy="32" rx="7.566" ry="7.566"/></g></svg>