<svg width="64" height="69" viewBox="0 0 64 69" xmlns="http://www.w3.org/2000/svg"><g fill="#FFF" fill-rule="evenodd"><path d="M15.086 30.248c-.915 1.676-.38 3.123.304 4.19.762.99 1.98 1.6 3.2 1.6h3.58c.535 0 .992.23 1.297.61.38.533.685 1.447.61 2.895l-.306 3.428c0 .154.078.306.23.306.457.076.914.23 1.448.305.152 0 .304-.075.304-.228l.23-2.362c.228.077.532.077.837.153l-.23 2.286c0 .15.077.303.23.303.456.077.913.153 1.447.153.152 0 .304-.076.304-.23l.154-2.36c.228 0 .533.075.838.075l-.076 2.363c0 .153.152.305.304.38.458 0 .915.077 1.372.077.152 0 .305-.152.38-.304l.077-2.21h.76v2.21c0 .228.153.38.382.38.457 0 .914 0 1.37-.076.154 0 .306-.152.306-.304v-2.362c.305 0 .533-.076.762-.076l.152 2.285c0 .153.153.305.38.305.458-.076.916-.076 1.373-.152.152 0 .305-.153.305-.38l-.153-2.287c.305-.077.61-.077.838-.153l.23 2.285c0 .153.15.305.38.23.533-.077.99-.23 1.447-.382.153 0 .23-.152.23-.305l-.306-3.2c-.152-1.447.23-2.362.534-2.97.304-.458.838-.687 1.37-.687h3.277c1.753 0 3.43-.99 4.038-2.667.305-.837.38-1.903-.228-3.046-1.83-3.353 2.438-8 2.438-13.18C51.505 11.96 45.41 0 32 0S12.57 11.886 12.57 17.067c0 5.18 4.268 9.828 2.516 13.18zm20.876-6.858c1.067-.61 2.82-1.066 4.267-1.066 2.437.076 3.732.228 5.256 2.286 1.22 1.6.533 4.114-.457 4.8-1.6 1.142-3.81 1.676-7.163.38-2.59-.99-3.277-2.514-3.353-3.885-.076-.99.534-1.98 1.448-2.515zm-4.648 4.648c.38.23.686 3.124.686 3.124s.305-2.895.686-3.124c.38-.228.838-.152 2.21 6.172 0 0 .228 1.904-1.067 2.514-.46.228-.992.076-1.297-.305-.228-.382-.533-.915-.533-1.906-.076.99-.305 1.524-.533 1.905-.305.38-.838.532-1.296.38-1.294-.61-1.065-2.514-1.065-2.514 1.37-6.476 1.828-6.476 2.21-6.248zm-12.8-3.428c1.524-2.058 2.82-2.21 5.257-2.286 1.45 0 3.2.457 4.268 1.066.914.534 1.524 1.524 1.448 2.59 0 1.296-.686 2.82-3.353 3.887-3.428 1.295-5.562.762-7.162-.38-.99-.687-1.675-3.277-.456-4.877z"/><path d="M60.038 55.543c-4.952-.457-.228 4.57-16.38-1.143l-7.39-3.124 7.39-3.124c16.152-5.79 11.428-.685 16.38-1.142 4.952-.458 3.43-4.343 2.895-5.41-.685-1.37-2.743-1.143-2.97-3.962-.23-2.286 0-3.657-2.668-3.58-2.21 0-3.58 2.132-4.266 3.504-.61 1.143-.61 2.362-1.678 2.97-1.523.84-4.19 2.135-8.685 3.963L31.62 49.22 21.485 44.95c-5.486-2.285-8.23-3.657-9.524-4.495-.762-.457-1.22-1.143-1.524-1.98-.457-1.6-1.524-4.267-3.886-4.496-3.352-.304-3.58 2.058-3.352 4.344.23 2.286-1.752 3.58-2.286 4.724-.304.685-1.6 3.58 2.134 3.733 4.952.153 1.142-3.96 17.295 1.753l6.4 2.743-6.4 2.743C4.19 59.732 8 55.62 3.048 55.77-.686 55.925.61 58.82.914 59.506c.534 1.066 2.438 2.362 2.286 4.724-.152 2.284 0 4.646 3.352 4.34 2.362-.227 3.43-2.894 3.886-4.494.23-.838.762-1.524 1.524-1.98 1.295-.763 4.038-2.21 9.524-4.496l10.057-4.267 11.047 4.724c4.496 1.905 7.162 3.124 8.686 3.962 1.143.61 1.143 1.828 1.676 2.97.686 1.372 2.058 3.505 4.267 3.505 2.666 0 2.513-1.295 2.666-3.58.228-2.82 2.285-2.59 2.97-3.963.61-1.066 2.134-4.876-2.818-5.41z"/></g></svg>