<svg width="50" height="68" viewBox="0 0 50 68" xmlns="http://www.w3.org/2000/svg"><g fill="#FFF" fill-rule="evenodd"><path d="M32.46 41.727c2.557 0 4.637-2.08 4.637-4.636v-17c0-2.555-2.08-4.635-4.636-4.635-2.555 0-4.636 2.08-4.636 4.636v17c0 2.557 2.08 4.637 4.637 4.637zm-7.727-4.636v-.086l-2.51 4.182c1.484-.772 2.51-2.31 2.51-4.095zM3.097 41.728c0 .54.062 1.067.102 1.598L13.62 27.457 9.705 3.95C9.315 1.663 7.355 0 5.007 0c-1.32 0-2.587.556-3.48 1.527C.637 2.497.185 3.805.29 5.122L3.1 38.636v3.09h-.003zm15.31-17.71c1.903-.402 3.832-.013 5.452 1.063.317.216.598.463.873.717V20.09c0-2.555-2.08-4.635-4.636-4.635s-4.636 2.08-4.636 4.636v5.296c.792-.702 1.586-1.082 2.943-1.367l.003-.004z"/><path d="M49.152 8.138c.117-1.292-.322-2.58-1.197-3.542-.87-.958-2.117-1.505-3.415-1.505-2.4 0-4.38 1.803-4.605 4.19l-.85 8.89c.686 1.155 1.106 2.487 1.106 3.924v16.58c0 3.94-2.762 7.548-6.666 8.076-2.967.402-5.638-.915-7.242-3.066-1.113 1.5-2.742 2.596-4.636 2.983v3.505c0 .853-.693 1.545-1.546 1.545-.853 0-1.545-.692-1.545-1.545v-6.868l4.852-8.092c1.135-1.886.578-4.327-1.267-5.555-.918-.612-2.02-.822-3.11-.602-1.08.222-2.008.856-2.617 1.783l-11.91 18.13c-.272.42-.346.947-.173 1.414 1.376 3.647 3.876 6.837 7.363 9.223.417.285.68.748.68 1.252v7.598c0 .853.692 1.545 1.545 1.545h21.637c.853 0 1.545-.692 1.545-1.545V62.01c0-.625.39-1.162.965-1.416 4.985-2.188 8.308-7.13 8.308-12.685l-.01-9.135 2.79-30.637z"/></g></svg>