<svg width="64" height="64" viewBox="0 0 64 64" xmlns="http://www.w3.org/2000/svg"><g fill="#FFF" fill-rule="evenodd"><path d="M16.722 40.625l-3.684 3.684h3.158l-2.63 5.787 5.787-2.63v3.156l3.683-3.683"/><path d="M45.54 38.844c5.24-5.96 9.24-11.944 11.852-18.28-3.977-5.41-8.884-10.317-14.295-14.293-6.335 2.613-12.32 6.61-18.28 11.852-5.625-2.574-14.225.352-23.937 16.245-1.053 2.104 0 2.104 1.052 1.052.865-.866 9.552-9.548 14.078-8.224-2.83 4.232-1.777 7.127 1.395 10.78-.466.85-.35 1.932.37 2.65l5.26 5.26c.72.72 1.8.837 2.65.372 3.654 3.172 6.547 4.225 10.782 1.394 1.323 4.525-7.36 13.213-8.224 14.078-1.053 1.052-1.053 2.104 1.052 1.052 15.892-9.712 18.82-18.31 16.243-23.938h.002zm-10.4-10.322c-2.033-2.033-2.033-5.333 0-7.367 2.034-2.034 5.333-2.034 7.368 0s2.033 5.334 0 7.367c-2.035 2.035-5.334 2.035-7.368 0zM60.912 3.508l2.644-3.4-3.4 2.644c-4.843.076-9.4.852-13.766 2.287 4.55 3.518 8.717 7.684 12.234 12.235 1.435-4.367 2.21-8.923 2.287-13.766l.002-.002z"/></g></svg>