<svg width="62" height="66" viewBox="0 0 62 66" xmlns="http://www.w3.org/2000/svg"><g fill="#FFF" fill-rule="evenodd"><path d="M53.39 16.8c-2.233-.92-4.677-1.33-7.155-1.366l.058-.04c.436-.262.71-.74.71-1.25v-2.305l.428.423c.568.568 1.49.568 2.057 0l5.818-5.818c.568-.567.568-1.49 0-2.057-3.65-3.642-8.235-4.584-12.93-2.635-5.11 2.115-9.286 7.2-11.375 13.13C28.91 8.95 24.734 3.87 19.625 1.754 14.935-.197 10.345.746 6.7 4.39c-.567.57-.567 1.49 0 2.058l5.82 5.818c.566.567 1.488.567 2.055 0l.428-.425v2.308c0 .515.268.99.707 1.25l.058.04c-2.48.037-4.922.447-7.156 1.366C3.432 18.957.457 23.286.457 28.697c0 .436.192.843.524 1.12.263.218.595.337.932.337.087 0 .175 0 .262-.02l8-1.455c.448-.082.835-.37 1.038-.78l.943-1.885.652 1.178c.305.558.954.852 1.576.72l12.184-2.594-.03.366c-.03.407.117.8.387 1.097.274.3.66.465 1.065.465h6.033c.407 0 .79-.166 1.064-.465.277-.29.416-.693.384-1.094l-.028-.368 12.19 2.595c.62.13 1.265-.163 1.57-.72l.652-1.18.94 1.886c.203.407.59.698 1.04.78l8 1.454c.088.017.175.023.263.023.337 0 .67-.116.93-.335.332-.276.524-.683.524-1.117 0-5.41-2.972-9.74-8.153-11.89l-.006-.017zM24.595 51.86c-.03.406.11.8.384 1.096.274.296.66.465 1.065.465h9.91c.408 0 .787-.165 1.066-.464.278-.3.412-.69.377-1.094l-.212-2.91c-.058-.756-.69-1.346-1.455-1.346h-9.483c-.757 0-1.39.59-1.45 1.35l-.21 2.91.007-.007zm.646-8.728c-.03.407.11.8.384 1.096.273.3.66.466 1.065.466h8.618c.408 0 .795-.166 1.068-.466.276-.29.416-.692.384-1.093l-.218-2.91c-.058-.756-.69-1.346-1.455-1.346h-8.183c-.762 0-1.396.59-1.455 1.348l-.21 2.91v-.006z"/><path d="M27.335 35.964h7.33c.408 0 .792-.166 1.065-.466.277-.29.416-.692.384-1.094l-.215-2.91c-.06-.755-.69-1.346-1.456-1.346H27.55c-.757 0-1.39.59-1.45 1.35l-.214 2.91c-.03.407.11.8.384 1.096.276.3.663.465 1.067.465l-.002-.006zm9.053 20.363H25.612c-.762 0-1.396.59-1.454 1.35l-.428 5.818c-.03.408.117.8.387 1.097.274.3.66.465 1.065.465h11.636c.402 0 .786-.165 1.062-.465.276-.29.416-.692.384-1.094l-.43-5.818c-.053-.756-.687-1.347-1.45-1.347l.004-.006z"/></g></svg>