<svg width="64" height="43" viewBox="0 0 64 43" xmlns="http://www.w3.org/2000/svg"><g fill="#FFF" fill-rule="evenodd"><path d="M51.758 41.026c-.42 0-.828-.203-1.077-.57L32.988 14.513c-.213-.31-.28-.696-.185-1.06.095-.364.34-.67.678-.838L52.587 3.06c.345-.172.75-.182 1.104-.03.355.158.622.46.73.832l8.902 30.613c.18.614-.115 1.266-.693 1.54L52.315 40.9c-.18.084-.37.125-.557.125h-.002zm-15.78-26.748l16.227 23.79 8.303-3.933-8.155-28.047-16.374 8.188-.002.002zM15.39 42.654c-.154 0-.31-.028-.46-.085L1.467 37.467c-.635-.24-.98-.93-.788-1.582l8.793-30.18c.1-.345.34-.636.665-.797.322-.164.696-.185 1.036-.06l19.43 7.164c.353.13.632.405.767.755s.112.74-.062 1.072L16.544 41.956c-.23.44-.682.697-1.155.697zM3.518 35.457l11.256 4.267 13.538-25.78-16.727-6.168L3.518 35.46v-.003z"/><path d="M29.097 16.267c-.1-.336-.33-.618-.64-.782-1.533-.812-3.15-1.207-4.944-1.207-2.24 0-4.34.612-6.367 1.203-1.713.5-3.33.974-4.77.974-1.395 0-2.46-.436-3.452-1.414-.334-.328-.817-.452-1.268-.325-.45.127-.797.487-.91.94L1.97 34.96c-.154.615.16 1.252.74 1.506l11.4 4.993c.168.074.346.11.522.11.458 0 .9-.245 1.136-.668l13.216-23.63c.172-.307.213-.668.113-1.005zM9.61 19.935c0 .187-.186.56-.558.56-.377 0-.684-.183-.684-.56 0-.434.312-.682.56-.682.745 0 .683.497.683.682zm1.998 3.84c0 .185-.187.558-.56.558-.376 0-.683-.182-.683-.56 0-.434.31-.682.56-.682.744 0 .683.497.683.683zm2.875-3.794c0 .322-.32.964-.964.964-.652 0-1.178-.313-1.178-.964 0-.75.535-1.178.964-1.178 1.283 0 1.177.857 1.177 1.178zm4.12-.045c0 .187-.187.56-.56.56-.376 0-.682-.183-.682-.56 0-.434.312-.682.56-.682.745 0 .683.497.683.682zm1.243 3.218c0 .186-.187.558-.56.558-.377 0-.683-.18-.683-.557 0-.435.31-.684.56-.684.744 0 .683.497.683.683zm4.107-3.622c0 .322-.32.964-.964.964-.65 0-1.178-.313-1.178-.963 0-.75.535-1.177.964-1.177 1.284 0 1.177.856 1.177 1.178zm38.535 12.597L56.895 14.3c-.14-.448-.508-.785-.966-.884-.458-.1-.933.054-1.246.402-.938 1.044-2.02 1.51-3.512 1.51-1.24 0-2.63-.315-4.098-.648-1.708-.385-3.474-.785-5.326-.785-1.995 0-3.743.475-5.34 1.45-.3.183-.513.48-.592.82-.078.343-.016.702.174.998L49.747 38.56c.248.385.667.6 1.097.6.2 0 .405-.047.594-.144l10.4-5.34c.566-.29.84-.944.65-1.55zM41.595 18.752c-.01.186-.215.548-.587.53-.378-.02-.672-.217-.653-.593.022-.434.345-.668.592-.654.745.038.657.53.647.715v.002zm1.797 3.935c-.01.187-.215.548-.588.53-.378-.02-.673-.216-.654-.592.023-.433.345-.667.593-.654.744.04.657.532.648.718h.002zm3.066-3.64c-.017.32-.37.946-1.012.913-.65-.033-1.16-.372-1.127-1.023.038-.748.595-1.148 1.02-1.126 1.285.067 1.133.917 1.117 1.237zm2.878.103c.02-.433.345-.665.592-.652.744.04.656.53.646.718-.01.185-.215.547-.587.528-.375-.02-.67-.216-.652-.593zm2.315 3.343c-.01.186-.215.548-.587.53-.376-.02-.67-.218-.652-.594.023-.434.346-.666.593-.654.745.038.656.53.648.717zm4.29-3.407c-.017.32-.37.945-1.013.912-.65-.033-1.16-.37-1.126-1.023.04-.748.597-1.147 1.024-1.125 1.283.066 1.132.916 1.116 1.236zM37.625 28.1c-.255 0-.496-.15-.6-.4l-2.22-5.282c-.14-.332.017-.713.35-.853.328-.14.713.017.852.35l2.218 5.28c.14.333-.017.715-.35.853-.08.035-.166.05-.25.05zm-9.693.498c-.07 0-.143-.013-.213-.036-.34-.117-.52-.488-.402-.828l1.896-5.476c.117-.34.487-.52.828-.403.34.118.52.49.402.828L28.55 28.16c-.095.27-.347.44-.617.44v-.002zm-.817-20.41c-.195 0-.39-.088-.516-.253l-3.828-4.967c-.22-.285-.166-.694.12-.914.283-.22.692-.167.912.118l3.828 4.967c.22.283.166.692-.12.912-.117.092-.257.136-.396.136zm4.23-1.058c-.283 0-.544-.19-.626-.478l-1.194-4.315c-.096-.347.107-.705.454-.8.347-.096.707.106.802.453l1.195 4.316c.095.347-.108.705-.455.8-.057.017-.116.025-.173.025h-.003zm1.74 22.607c-.336 0-.622-.257-.65-.6l-.487-6.064c-.03-.357.237-.67.596-.7.366-.03.673.238.7.595l.49 6.065c.028.358-.24.672-.598.702l-.053.002zm2.01-23.014c-.04 0-.08-.004-.12-.01-.353-.066-.587-.406-.522-.76L35.45.535c.065-.353.4-.59.76-.522.352.065.586.404.52.758l-.997 5.42c-.057.312-.33.532-.64.532h.002zm3.335 1.953c-.148 0-.3-.05-.422-.156-.274-.234-.305-.645-.07-.918l3.17-3.705c.235-.272.646-.303.92-.07.272.234.304.645.07.918L38.926 8.45c-.13.15-.31.227-.495.227z"/></g></svg>