<svg width="62" height="62" viewBox="0 0 62 62" xmlns="http://www.w3.org/2000/svg"><g fill="#FFF" fill-rule="evenodd"><path d="M14.76 24.333c.733 0 1.333-.597 1.333-1.333 0-.232-.06-.448-.165-.64l-1.933-8.693H23c.736 0 1.333-.598 1.333-1.334 0-.453-.085-.89-.133-1.333H10.67l2.96 13.333h1.13z"/><path d="M7.707 9.955c-.088-.395.008-.806.26-1.12.254-.32.636-.502 1.04-.502h14.588c-1.654-4.645-6.054-8-11.262-8-6.618 0-12 5.387-12 12 0 6.115 4.614 11.12 10.534 11.854L7.71 9.955h-.003z"/><path d="M55 11h-8.568l-1.184 2.667h8.09L43.27 59h-19.2l-10.07-45.333h28.33l.387-.87.8-1.797H12.333c-.405 0-.786.187-1.04.5-.253.32-.346.727-.26 1.12l10.666 48c.132.612.676 1.047 1.3 1.047h21.333c.624 0 1.166-.435 1.302-1.046l10.666-48c.09-.393-.007-.807-.26-1.12-.253-.32-.635-.5-1.04-.5z"/><path d="M40.504 24.333L27.117 54.46c-.224.497-.712.79-1.226.79-.178 0-.362-.037-.538-.114-.672-.293-.976-1.085-.677-1.76l12.912-29.043H13.635L21.7 60.62c.132.615.676 1.047 1.3 1.047h21.333c.624 0 1.166-.435 1.302-1.046L53.7 24.334H40.503z"/><path d="M28.333 56.333c-.186 0-.368-.037-.544-.114-.673-.3-.977-1.09-.678-1.76l21.333-48c.126-.284.347-.513.622-.652L59.733.475c.656-.326 1.46-.062 1.787.597.333.66.064 1.46-.595 1.787l-10.24 5.12L29.55 55.543c-.22.496-.707.79-1.22.79h.003z"/></g></svg>