<svg width="64" height="55" viewBox="0 0 64 55" xmlns="http://www.w3.org/2000/svg"><g fill="#FFF" fill-rule="evenodd"><path d="M36.38 3.506c-3.323-.223-8.806-1.875-13.256-1.875-6.28 0-12.39.355-18.61 8.648-.856 1.14-.667 1.832-.56 2.63-.825.943-2.88 1.973-3.29 2.975-.502 1.227 0 1.532 0 1.532s-.776.752-.59 1.415c1.05 3.737 13.642.197 20.04 2.71 1.414.943 4.604 4.896 9.152 6.256 2.564.766 5.97.71 6.505-.333.625-1.226-3.75-4.05-5.315-5.755 3.02 1.05 4.156 1.75 7.232 4.81 4.92 4.894 8.143 8.894 9.655 11.877.306.604 2.078 1.822 2.078 2.833 0 .987-3.186 2.377-4.298 4.45-.917 1.71-1.776 4.797-1.08 5.802.664.96 1.768-1.532 3.418-1.65 1.65-.12 4.805 1.21 5.776 1.178 1.622-.054 4.43-.554 5.725-.423 2.496.25 2.9 3.69 4.53 3.488.993-.123.568-4.898-1.63-7.94-2.196-3.04-5.498-3.873-6.472-5.36-.508-1.575-.184-4.177-.502-5.796-1.924-9.83-8.5-22.236-8.956-23.81.19-1.1 1.582-3.936 2.53-4.885 2.075-2.074 4.603-3.187 3.592-4.097-4.227-3.803-11.784.726-15.67 1.32z"/><path d="M12.825 21c0 2.58 3.9 6.128 7.29 5.253 1.88-.488-1.088-2.002-.944-4.48-1.524-.507-4.133-.774-6.345-.774z"/></g></svg>