<svg width="62" height="77" viewBox="0 0 62 77" xmlns="http://www.w3.org/2000/svg"><g fill="#FFF" fill-rule="evenodd"><path d="M27.8 76.8c-.883 0-1.6-.717-1.6-1.6V49.6c0-.883.717-1.6 1.6-1.6.883 0 1.6.717 1.6 1.6v25.6c0 .883-.717 1.6-1.6 1.6z"/><circle cx="27.8" cy="36.8" r="4.8"/><path d="M42.2 76.8H15c-.883 0-1.6-.717-1.6-1.6 0-.883.717-1.6 1.6-1.6h27.2c.883 0 1.6.717 1.6 1.6 0 .883-.717 1.6-1.6 1.6z"/><circle cx="27.8" cy="36.8" r="4.8"/><path d="M31 35.2c-.384 0-.768-.134-1.072-.41-.656-.592-.71-1.6-.118-2.26l28.8-32c.598-.658 1.606-.703 2.262-.117.656.59.71 1.6.118 2.256l-28.8 32c-.32.35-.752.527-1.19.527v.003z"/><path d="M38.93 22.4l-6.88 7.648c2.24 1.418 3.75 3.904 3.75 6.752 0 4.41-3.584 8-8 8s-8-3.59-8-8 3.584-8 8-8c.333 0 .65.058.973.096l5.85-6.496H4.42c.532 1.018 1.098 2.08 1.706 3.2 5.93 10.912 15.12 25.6 21.674 25.6s15.744-14.688 21.674-25.6c.608-1.12 1.17-2.182 1.705-3.2H38.93z"/><path d="M53.4 12.8h-5.83l-1.92 2.134L44.69 16h6.156C43.934 30 32.92 48 27.8 48c-5.114 0-16.134-18-23.046-32h35.628l.96-1.066 1.92-2.134H2.2c-.55 0-1.056.282-1.354.746-.297.464-.326 1.046-.09 1.542C3.625 21.12 18.425 51.2 27.8 51.2c9.376 0 24.173-30.08 27.04-36.112.24-.496.205-1.078-.086-1.542-.292-.464-.8-.746-1.354-.746z"/><path d="M31 35.2c-.384 0-.768-.134-1.072-.41-.656-.592-.71-1.6-.118-2.26l28.8-32c.598-.658 1.606-.703 2.262-.117.656.59.71 1.6.118 2.256l-28.8 32c-.32.35-.752.527-1.19.527v.003z"/></g></svg>