<svg width="62" height="66" viewBox="0 0 62 66" xmlns="http://www.w3.org/2000/svg"><g fill="#FFF" fill-rule="evenodd"><path d="M38.273 65.636H17.91C8.28 65.636.454 57.81.454 48.182V33.636c0-9.63 7.825-17.454 17.454-17.454h20.363c9.63 0 17.454 7.825 17.454 17.454v14.546c0 9.63-7.825 17.454-17.454 17.454zM17.91 22C11.49 22 6.272 27.22 6.272 33.636v14.546c0 6.417 5.22 11.636 11.636 11.636h20.363c6.417 0 11.636-5.22 11.636-11.636V33.636C49.91 27.22 44.69 22 38.272 22H17.91z"/><path d="M58.636 42.364c-1.605 0-2.91-1.304-2.91-2.91V16.183c0-3.21-2.608-5.818-5.817-5.818h-7.274c-1.605 0-2.91-1.304-2.91-2.91 0-1.605 1.305-2.91 2.91-2.91h7.273c6.417 0 11.635 5.22 11.635 11.638v23.273c0 1.605-1.303 2.91-2.91 2.91zm-9.885-2.59c-.706.635-1.133 1.02-2.122 1.02-.99 0-1.41-.385-2.118-1.02-.83-.75-1.96-1.774-4.067-1.774-2.103 0-3.238 1.024-4.064 1.775-.708.634-1.136 1.018-2.116 1.018-.98 0-1.408-.384-2.112-1.018-.826-.75-1.96-1.775-4.064-1.775-2.106 0-3.24 1.024-4.067 1.775-.706.634-1.133 1.018-2.123 1.018-.99 0-1.41-.384-2.117-1.018-.827-.75-1.96-1.775-4.067-1.775-2.104 0-3.238 1.024-4.064 1.775-.708.634-1.136 1.018-2.116 1.018-.98 0-1.408-.384-2.112-1.018-.61-.553-1.397-1.25-2.61-1.583v9.99c0 7.22 5.877 13.09 13.09 13.09h20.365c7.214 0 13.09-5.87 13.09-13.09v-9.99c-1.215.33-2 1.027-2.612 1.58l.006.003z"/><path d="M43.044 11.818l2.458-9.833c.11-.43.01-.893-.262-1.245-.28-.35-.698-.558-1.15-.558H3.365c-.588 0-1.12.355-1.344.902-.227.54-.102 1.163.314 1.582l9.155 9.152h31.554zm-29.5 2.91v4.363c0 .804.653 1.455 1.456 1.455h26.182c.803 0 1.454-.65 1.454-1.454v-4.363h-29.09z"/></g></svg>