<svg width="64" height="44" viewBox="0 0 64 44" xmlns="http://www.w3.org/2000/svg"><path d="M34.91 2.91h-5.82C26.183 2.91 23.274 0 20.365 0 8.922 0 0 21.69 0 34.91c0 5.585 5.818 8.726 8.727 8.726 2.91 0 8.728-11.636 14.546-11.636h17.454c5.818 0 11.637 11.636 14.546 11.636 2.91 0 8.727-2.91 8.727-8.727C64 21.69 55.078 0 43.636 0c-2.91 0-3.578 2.91-8.727 2.91zm2.908 11.635c-1.606 0-2.91 1.304-2.91 2.91 0 1.605 1.304 2.91 2.91 2.91s2.91-1.305 2.91-2.91c0-1.606-1.304-2.91-2.91-2.91zm11.637 0c-1.606 0-2.91 1.304-2.91 2.91 0 1.605 1.304 2.91 2.91 2.91 1.605 0 2.91-1.305 2.91-2.91 0-1.606-1.305-2.91-2.91-2.91zm-5.82-5.818c-1.604 0-2.908 1.31-2.908 2.91 0 1.605 1.304 2.908 2.91 2.908 1.605 0 2.908-1.303 2.908-2.91 0-1.6-1.303-2.908-2.91-2.908zm0 11.637c-1.604 0-2.908 1.303-2.908 2.91 0 1.605 1.304 2.908 2.91 2.908 1.605 0 2.908-1.303 2.908-2.91 0-1.605-1.303-2.908-2.91-2.908zM20.366 8.727c-4.813 0-8.73 3.916-8.73 8.728 0 4.81 3.917 8.727 8.73 8.727 4.81 0 8.726-3.916 8.726-8.727 0-4.812-3.915-8.728-8.726-8.728zm0 5.818c-1.6 0-2.91 1.31-2.91 2.91s1.31 2.91 2.91 2.91 2.908-1.31 2.908-2.91-1.31-2.91-2.91-2.91z" fill="#FFF" fill-rule="evenodd"/></svg>