<svg width="64" height="59" viewBox="0 0 64 59" xmlns="http://www.w3.org/2000/svg"><path d="M33.904 13.627l1.427 4.387c1.182-1.01 2.673-1.916 4.612-2.544 1.888-.614 3.556-.96 5.063-1.158l-1.376-4.234c-1.524.22-3.204.576-5.057 1.178-1.85.602-3.376 1.44-4.67 2.37zm2.966 9.136l1.428 4.387c1.18-1.01 2.672-1.916 4.61-2.544 1.89-.614 3.556-.96 5.063-1.158l-1.375-4.234c-1.523.22-3.203.576-5.056 1.178-1.85.598-3.374 1.437-4.67 2.37zm2.97 9.133l1.427 4.387c1.18-1.01 2.672-1.917 4.61-2.544 1.89-.615 3.557-.96 5.064-1.16l-1.375-4.233c-1.523.22-3.203.576-5.056 1.178-1.854.598-3.377 1.44-4.67 2.37zm-22.598 6.95l1.376 4.234c1.334-.723 2.886-1.424 4.774-2.035 1.94-.63 3.677-.775 5.226-.65l-1.428-4.387c-1.596.006-3.32.224-5.168.822-1.852.602-3.42 1.3-4.78 2.016zm-5.936-18.268l1.376 4.233c1.334-.722 2.886-1.42 4.774-2.034 1.94-.63 3.677-.774 5.226-.65l-1.424-4.39c-1.597.01-3.322.224-5.172.826-1.852.6-3.42 1.3-4.78 2.016zm2.966 9.136l1.376 4.233c1.334-.723 2.886-1.424 4.774-2.035 1.94-.63 3.677-.774 5.226-.65l-1.424-4.39c-1.597.006-3.322.224-5.168.822-1.853.602-3.424 1.303-4.784 2.02zM35.405 1.512c-5.514 1.792-8.394 5.606-9.77 8.19-2.63-1.28-7.2-2.673-12.713-.88-8.074 2.623-12.7 8.405-12.7 8.405l13.103 40.28c.403 1.237 2.067 1.525 2.81.456 1.596-2.3 4.67-5.305 10.422-7.174 5.497-1.787 9.5.172 11.696 1.848.87.666 2.118.192 2.438-.857.808-2.646 2.904-6.527 8.353-8.297 5.757-1.872 10.013-1.245 12.66-.32 1.23.43 2.4-.774 2-2.013L50.62.85s-7.142-1.96-15.215.662zm-.362 44.307c-2.62-.782-6.083-1.146-10.05.14-4.004 1.3-6.807 3.037-8.638 4.493L5.97 18.51c1.147-1.145 3.8-3.334 8.52-4.867 4.444-1.443 8.09-.208 10.492 1.21l10.06 30.966zm22.06-8.606c-2.338-.102-5.628.14-9.63 1.444-3.97 1.29-6.555 3.622-8.215 5.792l-10.06-30.967c1.106-2.56 3.327-5.702 7.775-7.145 4.717-1.533 8.15-1.322 9.75-1.07l10.38 31.946z" fill="#FFF" fill-rule="evenodd"/></svg>