<svg width="58" height="70" viewBox="0 0 58 70" xmlns="http://www.w3.org/2000/svg"><path d="M47.76 5.644C40.184.128 34.792.248 32.744.58c-.576.092-1.06.424-1.4.892l-18.48 25.496L3.812 39.46c-1.108 1.528-1.748 3.344-1.848 5.228L.78 67.184c-.084 1.62 1.528 2.792 3.04 2.212l21.024-8.04c1.772-.68 3.312-1.86 4.424-3.396l7.376-10.18 20.144-27.796c.356-.492.5-1.092.4-1.692-.336-2.104-1.948-7.208-9.428-12.648zM24.908 56.86l-8.172 3.156c-.32.124-.676.024-.884-.248-1.052-1.34-2.304-2.668-4.3-4.12-1.996-1.448-3.644-2.232-5.24-2.824-.32-.12-.524-.424-.504-.768l.488-8.744 2.196-3.02s4.916-.676 11.332 3.992c6.408 4.664 7.284 9.552 7.284 9.552l-2.2 3.024z" fill="#FFF" fill-rule="evenodd"/></svg>