<svg width="48" height="81" viewBox="0 0 48 81" xmlns="http://www.w3.org/2000/svg"><path d="M35.506 43.275c.502-1.096 1.892-2.112 3.09-2.248 1.2-.136 2.29-1.233 2.427-2.43.144-1.19 1.156-2.585 2.248-3.09 1.097-.506 1.8-1.883 1.57-3.06-.247-1.182.288-2.82 1.172-3.63.89-.825 1.13-2.35.54-3.404-.59-1.046-.59-2.767 0-3.813.59-1.058.35-2.584-.54-3.404-.884-.82-1.415-2.452-1.173-3.63.23-1.18-.473-2.562-1.57-3.068-1.087-.506-2.103-1.89-2.247-3.09-.14-1.19-1.233-2.286-2.427-2.43-1.198-.14-2.588-1.157-3.09-2.245-.51-1.096-1.887-1.798-3.068-1.555-1.182.234-2.814-.298-3.63-1.182-.82-.892-2.35-1.13-3.4-.54-1.05.59-2.77.59-3.816 0-1.05-.6-2.576-.36-3.404.532-.812.884-2.444 1.415-3.63 1.18-1.177-.237-2.56.464-3.06 1.56-.506 1.09-1.896 2.105-3.094 2.24-1.2.15-2.29 1.242-2.43 2.436-.146 1.194-1.153 2.584-2.25 3.085-1.087.505-1.793 1.886-1.555 3.068.233 1.177-.298 2.814-1.182 3.63-.884.816-1.13 2.346-.54 3.404.59 1.045.59 2.767 0 3.812-.59 1.054-.35 2.58.54 3.409.888.807 1.415 2.443 1.18 3.63-.237 1.176.47 2.558 1.557 3.06 1.096.505 2.103 1.9 2.244 3.09.143 1.197 1.23 2.294 2.43 2.43 1.198.136 2.588 1.156 3.094 2.248.5 1.09 1.883 1.79 3.06 1.556 1.18-.233 2.818.294 3.63 1.182.824.884 2.35 1.13 3.403.54 1.046-.59 2.767-.59 3.817 0 1.05.59 2.58.344 3.4-.54.82-.893 2.448-1.415 3.63-1.18 1.185.236 2.567-.465 3.072-1.553zM23.5 37.945c-7.982 0-14.45-6.472-14.45-14.445 0-7.982 6.468-14.454 14.45-14.454 7.982 0 14.45 6.473 14.45 14.454 0 7.973-6.473 14.446-14.45 14.446zM6.394 46.49L1.11 76.447l13.295-1.972 11.82 6.4 5.26-29.84c-2.537.736-5.214 1.153-7.99 1.153-6.413 0-12.32-2.134-17.1-5.7zm33.94.204c-1.322.96-2.728 1.81-4.207 2.538l-3.18 18.003 14.32-7.77-6.933-12.77z" fill="#FFF" fill-rule="evenodd"/></svg>