<svg width="32" height="32" viewBox="0 0 32 32" xmlns="http://www.w3.org/2000/svg" xmlns:sketch="http://www.bohemiancoding.com/sketch/ns"><title>rain 2</title><desc>Created with Sketch Beta.</desc><path fill="#fff" d="M19 27c-.552 0-1 .447-1 1v3c0 .553.448 1 1 1s1-.447 1-1v-3c0-.553-.448-1-1-1zm4.067-21.972c-1.468-2.975-4.524-5.028-8.067-5.028-4.75 0-8.63 3.682-8.967 8.345-3.491.995-6.033 4.045-6.033 7.655 0 4.26 3.54 7.731 8 7.977l14.5.023c5.247 0 9.5-4.253 9.5-9.5 0-5.055-3.952-9.177-8.933-9.472zm1.933 21.972c-.552 0-1 .447-1 1v3c0 .553.448 1 1 1s1-.447 1-1v-3c0-.553-.448-1-1-1zm-18 0c-.552 0-1 .447-1 1v3c0 .553.448 1 1 1s1-.447 1-1v-3c0-.553-.448-1-1-1zm6 0c-.552 0-1 .447-1 1v3c0 .553.448 1 1 1s1-.447 1-1v-3c0-.553-.448-1-1-1z" sketch:type="MSShapeGroup"/></svg>