<svg width="32" height="32" viewBox="0 0 32 32" xmlns="http://www.w3.org/2000/svg" xmlns:sketch="http://www.bohemiancoding.com/sketch/ns"><title>rain</title><desc>Created with Sketch Beta.</desc><path fill="#fff" d="M23 26c-.553 0-1 .448-1 1 0 .553.447 1 1 1 .553 0 1-.447 1-1 0-.552-.447-1-1-1zm.067-20.971c-1.468-2.976-4.524-5.029-8.067-5.029-4.749 0-8.63 3.682-8.967 8.345-3.491.996-6.033 4.045-6.033 7.655 0 4.26 3.54 7.755 8 8h14c5.785 0 10-4.253 10-9.5 0-5.055-3.951-9.176-8.933-9.471zm-4.067 24.971c-.553 0-1 .448-1 1 0 .553.447 1 1 1 .553 0 1-.447 1-1 0-.552-.447-1-1-1zm-2-4c-.553 0-1 .448-1 1 0 .553.447 1 1 1 .553 0 1-.447 1-1 0-.552-.447-1-1-1zm-6 0c-.553 0-1 .448-1 1 0 .553.447 1 1 1 .553 0 1-.447 1-1 0-.552-.447-1-1-1zm2 4c-.553 0-1 .448-1 1 0 .553.447 1 1 1 .553 0 1-.447 1-1 0-.552-.447-1-1-1z" sketch:type="MSShapeGroup"/></svg>