<svg width="30" height="20" viewBox="0 0 30 20" xmlns="http://www.w3.org/2000/svg" xmlns:sketch="http://www.bohemiancoding.com/sketch/ns"><title>sun</title><desc>Created with Sketch Beta.</desc><path fill="#fff" d="M29 18h-28c-.552 0-1 .447-1 1 0 .553.448 1 1 1h28c.552 0 1-.447 1-1 0-.553-.448-1-1-1zm-26-9.586c.391.391 1.024.391 1.414 0 .391-.391.391-1.023 0-1.414l-1.414-1.414c-.391-.391-1.023-.391-1.414 0s-.391 1.023 0 1.414l1.414 1.414zm24 0l1.414-1.414c.391-.391.391-1.023 0-1.414s-1.023-.391-1.414 0l-1.414 1.414c-.391.391-.391 1.023 0 1.414s1.023.391 1.414 0zm0 7.586c-.769-5.641-5.904-10-12-10s-11.231 4.359-12 10h24zm-12-12c.552 0 1-.447 1-1v-2c0-.552-.448-1-1-1s-1 .448-1 1v2c0 .553.448 1 1 1z" sketch:type="MSShapeGroup"/></svg>