<svg width="30" height="28" viewBox="0 0 30 28" xmlns="http://www.w3.org/2000/svg" xmlns:sketch="http://www.bohemiancoding.com/sketch/ns"><title>sunset</title><desc>Created with Sketch Beta.</desc><path fill="#fff" d="M25 26h-20c-.552 0-1 .448-1 1 0 .553.448 1 1 1h20c.552 0 1-.447 1-1 0-.552-.448-1-1-1zm3-4h-26c-.552 0-1 .448-1 1 0 .553.448 1 1 1h26c.552 0 1-.447 1-1 0-.552-.448-1-1-1zm1-4h-28c-.552 0-1 .447-1 1 0 .553.448 1 1 1h28c.552 0 1-.447 1-1 0-.553-.448-1-1-1zm-14-14c.552 0 1-.447 1-1v-2c0-.553-.448-1-1-1s-1 .447-1 1v2c0 .553.448 1 1 1zm12 4.414l1.414-1.414c.391-.391.391-1.023 0-1.414-.39-.391-1.023-.391-1.414 0l-1.414 1.414c-.391.391-.391 1.023 0 1.414s1.023.391 1.414 0zm-24 0c.391.391 1.024.391 1.414 0 .391-.391.391-1.023 0-1.414l-1.414-1.414c-.391-.391-1.023-.391-1.414 0s-.391 1.023 0 1.414l1.414 1.414zm24 7.586c-.769-5.641-5.904-10-12-10s-11.231 4.359-12 10h24z" sketch:type="MSShapeGroup"/></svg>