<svg width="32" height="32" viewBox="0 0 32 32" xmlns="http://www.w3.org/2000/svg" xmlns:sketch="http://www.bohemiancoding.com/sketch/ns"><title>sunset 2</title><desc>Created with Sketch Beta.</desc><path fill="#fff" d="M28 26h-24c-.553 0-1 .447-1 1 0 .553.447 1 1 1h24c.553 0 1-.447 1-1 0-.553-.447-1-1-1zm3-4h-30c-.553 0-1 .447-1 1 0 .553.447 1 1 1h30c.553 0 1-.447 1-1 0-.553-.447-1-1-1zm.476-2c.33-1.28.524-2.616.524-4 0-8.836-7.163-16-16-16s-16 7.164-16 16c0 1.384.194 2.72.524 4h30.952zm-10.476 10h-10c-.553 0-1 .447-1 1 0 .553.447 1 1 1h10c.553 0 1-.447 1-1 0-.553-.447-1-1-1z" sketch:type="MSShapeGroup"/></svg>