<svg width="62" height="58" viewBox="0 0 62 58" xmlns="http://www.w3.org/2000/svg"><path d="M31 35.45c7.648 0 14.054-2.6 14.442-5.994-1.14-3.187-2.38-6.67-3.6-10.086-.845 2.435-5.52 4.163-10.842 4.163-5.322 0-9.997-1.728-10.842-4.163-1.22 3.417-2.46 6.9-3.596 10.086.387 3.395 6.79 5.994 14.438 5.994zm0-21.456c3.597 0 6.934-1.114 7.914-2.845-1.348-3.784-2.503-7.032-3.236-9.076C35.192.707 32.988 0 31 0c-1.987 0-4.192.707-4.678 2.074-.73 2.044-1.888 5.292-3.236 9.075.98 1.73 4.32 2.844 7.914 2.844zM59.096 38.61L47.08 33.767l1.386 3.863c-.07 4.092-8.013 7.356-17.466 7.356-9.45 0-17.398-3.26-17.466-7.357l1.386-3.864L2.904 38.61c-3.37 1.358-3.514 3.87-.314 5.582l22.6 12.118c3.192 1.712 8.424 1.712 11.62 0l22.603-12.118c3.197-1.712 3.053-4.224-.317-5.58z" fill="#FFF" fill-rule="evenodd"/></svg>