<svg xmlns="http://www.w3.org/2000/svg" viewBox="0 0 20 20" enable-background="new 0 0 20 20"><path fill="#fff" d="M9.882 9.093c-.511 4.115-3.121 4.847-3.121 7.708 0 1.766 1.483 3.199 3.239 3.199 1.756 0 3.238-1.434 3.238-3.199 0-2.861-2.61-3.593-3.121-7.708-.016-.123-.219-.123-.235 0zm-5.999-9c-.511 4.115-3.121 4.846-3.121 7.708 0 1.765 1.482 3.199 3.238 3.199s3.238-1.434 3.238-3.199c0-2.861-2.61-3.593-3.121-7.708-.015-.123-.219-.123-.234 0zm12 0c-.511 4.115-3.121 4.847-3.121 7.708 0 1.765 1.482 3.199 3.238 3.199s3.238-1.434 3.238-3.199c0-2.861-2.61-3.593-3.121-7.708-.016-.123-.219-.123-.234 0z"/></svg>